{"title":"Johnny English 2003 DVDrip English Klam","uid":6731100,"size":1575186042,"categoryP":"video","categoryS":"movies","magnet":"?xt=urn:btih:6cc45d0b247585be1fc774e036c64acfa47c557e&amp;dn=Johnny+English+2003+DVDrip+English+Klam&amp;tr=udp%3A%2F%2Ftracker.openbittorrent.com%3A80&amp;tr=udp%3A%2F%2Fopen.demonii.com%3A1337&amp;tr=udp%3A%2F%2Ftracker.coppersurfer.tk%3A6969&amp;tr=udp%3A%2F%2Fexodus.desync.com%3A6969","seeders":0,"leechers":0,"uploader":"Klambake","files":-1,"time":1318158896,"description":"With: Rowan Atkinson, John Malkovich en Natalie Imbruglia\n\nNadat alle agenten van de Britse Geheime Dienst in ÃƒÂ©ÃƒÂ©n klap worden vermoord bij een aanslag, rest Pegasus (het Hoofd van de Britse Geheime Dienst) niets anders dan geheimagent Johnny English (Rowan Atkinson) op de zaak van de gestolen kroonjuwelen te zetten. Het spoor leidt naar de Franse zakenman, Pascal Sauvage (John Malkovich). Natuurlijk wil de baas van English hier niets van weten, want de heer Sauvage geniet een uiterst goede reputatie en is geliefd in de hogere kringen.\n\nRowan plays the eponymous lead character in a spoof spy thriller. During the course of the story we...\n\n------------------ Dutch Friends ------------------\nYou can find my Friends at: http://www.Film-Test.nl \n------ They got my dutch subs ----- and more ------\n\nGeneral:\n\nComplete name                    : Johnny English\\Johnny English.avi\nFormat                           : AVI\nFormat/Info                      : Audio Video Interleave\nFile size                        : 1.47 GiB\nDuration                         : 1h 23mn\nOverall bit rate                 : 2 504 Kbps\n\nVideo:\n\nFormat                           : MPEG-4 Visual\nFormat profile                   : Simple@L3\nFormat settings, BVOP            : No\nFormat settings, QPel            : No\nFormat settings, GMC             : No warppoints\nFormat settings, Matrix          : Default (H.263)\nCodec ID                         : XVID\nCodec ID/Hint                    : XviD\nDuration                         : 1h 23mn\nBit rate                         : 2 109 Kbps\nWidth                            : 652 pixels\nHeight                           : 352 pixels\nDisplay aspect ratio             : 1.852\nFrame rate                       : 25.000 fps\nColor space                      : YUV\nChroma subsampling               : 4:2:0\nBit depth                        : 8 bits\nScan type                        : Progressive\nCompression mode                 : Lossy\nBits/(Pixel*Frame)               : 0.368\nStream size                      : 1.24 GiB (84%)\nWriting library                  : XviD 1.1.2 (UTC 2006-11-01)\n\nAudio:\n\nFormat                           : AC-3\nFormat/Info                      : Audio Coding 3\nMode extension                   : CM (complete main)\nCodec ID                         : 2000\nDuration                         : 1h 23mn\nBit rate mode                    : Constant\nBit rate                         : 384 Kbps\nChannel(s)                       : 6 channels\nChannel positions                : Front: L C R, Side: L R, LFE\nSampling rate                    : 48.0 KHz\nBit depth                        : 16 bits\nCompression mode                 : Lossy\nStream size                      : 230 MiB (15%)\nAlignment                        : Aligned on interleaves\nInterleave, duration             : 32 ms (0.80 video frame)\nInterleave, preload duration     : 416 ms\n","torrent":{"xt":"urn:btih:6cc45d0b247585be1fc774e036c64acfa47c557e","amp;dn":"Johnny+English+2003+DVDrip+English+Klam","amp;tr":["udp%3A%2F%2Ftracker.openbittorrent.com%3A80","udp%3A%2F%2Fopen.demonii.com%3A1337","udp%3A%2F%2Ftracker.coppersurfer.tk%3A6969","udp%3A%2F%2Fexodus.desync.com%3A6969"],"infoHash":"6cc45d0b247585be1fc774e036c64acfa47c557e","infoHashBuffer":{"type":"Buffer","data":[108,196,93,11,36,117,133,190,31,199,116,224,54,198,74,207,164,124,85,126]},"announce":[],"urlList":[]}}